<mxfile host="65bd71144e">
    <diagram id="data-dictionary-diagram" name="Traffic Violation System Data Dictionary">
        <mxGraphModel dx="827" dy="800" grid="1" gridSize="10" guides="1" tooltips="1" connect="1" arrows="1" fold="1" page="1" pageScale="1" pageWidth="1169" pageHeight="827" math="0" shadow="0">
            <root>
                <mxCell id="0"/>
                <mxCell id="1" parent="0"/>
                <mxCell id="violator-title" value="&lt;h2&gt;Violator&lt;/h2&gt;" style="text;html=1;strokeColor=none;fillColor=none;align=left;verticalAlign=middle;whiteSpace=wrap;rounded=0;fontStyle=1" parent="1" vertex="1">
                    <mxGeometry x="40" y="10" width="200" height="30" as="geometry"/>
                </mxCell>
                <mxCell id="violator-table" value="&lt;table border=&quot;1&quot; width=&quot;100%&quot; cellpadding=&quot;4&quot; style=&quot;width: 100%; height: 100%; border-collapse: collapse;&quot;&gt;&lt;tr style=&quot;background-color: #A7C942; color: #ffffff; border: 1px solid #98bf21;&quot;&gt;&lt;th align=&quot;left&quot;&gt;Field&lt;/th&gt;&lt;th align=&quot;left&quot;&gt;Data Type&lt;/th&gt;&lt;th align=&quot;left&quot;&gt;Description&lt;/th&gt;&lt;/tr&gt;&lt;tr&gt;&lt;td&gt;id&lt;/td&gt;&lt;td&gt;AutoField&lt;/td&gt;&lt;td&gt;Primary key&lt;/td&gt;&lt;/tr&gt;&lt;tr style=&quot;background-color: #EAF2D3;&quot;&gt;&lt;td&gt;first_name&lt;/td&gt;&lt;td&gt;CharField(100)&lt;/td&gt;&lt;td&gt;First name of violator&lt;/td&gt;&lt;/tr&gt;&lt;tr&gt;&lt;td&gt;last_name&lt;/td&gt;&lt;td&gt;CharField(100)&lt;/td&gt;&lt;td&gt;Last name of violator&lt;/td&gt;&lt;/tr&gt;&lt;tr style=&quot;background-color: #EAF2D3;&quot;&gt;&lt;td&gt;license_number&lt;/td&gt;&lt;td&gt;CharField(20)&lt;/td&gt;&lt;td&gt;Driver&#39;s license number (optional)&lt;/td&gt;&lt;/tr&gt;&lt;tr&gt;&lt;td&gt;phone_number&lt;/td&gt;&lt;td&gt;CharField(15)&lt;/td&gt;&lt;td&gt;Contact phone number (optional)&lt;/td&gt;&lt;/tr&gt;&lt;tr style=&quot;background-color: #EAF2D3;&quot;&gt;&lt;td&gt;address&lt;/td&gt;&lt;td&gt;TextField&lt;/td&gt;&lt;td&gt;Residential address (optional)&lt;/td&gt;&lt;/tr&gt;&lt;tr&gt;&lt;td&gt;created_at&lt;/td&gt;&lt;td&gt;DateTimeField&lt;/td&gt;&lt;td&gt;Record creation timestamp&lt;/td&gt;&lt;/tr&gt;&lt;tr style=&quot;background-color: #EAF2D3;&quot;&gt;&lt;td&gt;updated_at&lt;/td&gt;&lt;td&gt;DateTimeField&lt;/td&gt;&lt;td&gt;Last update timestamp&lt;/td&gt;&lt;/tr&gt;&lt;/table&gt;" style="text;html=1;strokeColor=#c0c0c0;fillColor=#ffffff;overflow=fill;rounded=0;" parent="1" vertex="1">
                    <mxGeometry x="40" y="40" width="700" height="210" as="geometry"/>
                </mxCell>
                <mxCell id="violation-type-title" value="&lt;h2&gt;ViolationType&lt;/h2&gt;" style="text;html=1;strokeColor=none;fillColor=none;align=left;verticalAlign=middle;whiteSpace=wrap;rounded=0;fontStyle=1" parent="1" vertex="1">
                    <mxGeometry x="40" y="270" width="200" height="30" as="geometry"/>
                </mxCell>
                <mxCell id="violation-type-table" value="&lt;table border=&quot;1&quot; width=&quot;100%&quot; cellpadding=&quot;4&quot; style=&quot;width: 100%; height: 100%; border-collapse: collapse;&quot;&gt;&lt;tr style=&quot;background-color: #A7C942; color: #ffffff; border: 1px solid #98bf21;&quot;&gt;&lt;th align=&quot;left&quot;&gt;Field&lt;/th&gt;&lt;th align=&quot;left&quot;&gt;Data Type&lt;/th&gt;&lt;th align=&quot;left&quot;&gt;Description&lt;/th&gt;&lt;/tr&gt;&lt;tr&gt;&lt;td&gt;id&lt;/td&gt;&lt;td&gt;AutoField&lt;/td&gt;&lt;td&gt;Primary key&lt;/td&gt;&lt;/tr&gt;&lt;tr style=&quot;background-color: #EAF2D3;&quot;&gt;&lt;td&gt;name&lt;/td&gt;&lt;td&gt;CharField(100)&lt;/td&gt;&lt;td&gt;Name of violation type, must be unique&lt;/td&gt;&lt;/tr&gt;&lt;tr&gt;&lt;td&gt;description&lt;/td&gt;&lt;td&gt;TextField&lt;/td&gt;&lt;td&gt;Detailed description of violation (optional)&lt;/td&gt;&lt;/tr&gt;&lt;tr style=&quot;background-color: #EAF2D3;&quot;&gt;&lt;td&gt;amount&lt;/td&gt;&lt;td&gt;DecimalField&lt;/td&gt;&lt;td&gt;Standard fine amount for this violation type&lt;/td&gt;&lt;/tr&gt;&lt;tr&gt;&lt;td&gt;category&lt;/td&gt;&lt;td&gt;CharField(100)&lt;/td&gt;&lt;td&gt;Category of violation (Licensing, Registration, etc.)&lt;/td&gt;&lt;/tr&gt;&lt;tr style=&quot;background-color: #EAF2D3;&quot;&gt;&lt;td&gt;classification&lt;/td&gt;&lt;td&gt;CharField(50)&lt;/td&gt;&lt;td&gt;Classification of violation (Regular or NCAP)&lt;/td&gt;&lt;/tr&gt;&lt;tr&gt;&lt;td&gt;is_active&lt;/td&gt;&lt;td&gt;BooleanField&lt;/td&gt;&lt;td&gt;Whether this violation type is currently active&lt;/td&gt;&lt;/tr&gt;&lt;tr style=&quot;background-color: #EAF2D3;&quot;&gt;&lt;td&gt;is_ncap&lt;/td&gt;&lt;td&gt;BooleanField&lt;/td&gt;&lt;td&gt;Whether this violation is for NCAP&lt;/td&gt;&lt;/tr&gt;&lt;tr&gt;&lt;td&gt;created_at&lt;/td&gt;&lt;td&gt;DateTimeField&lt;/td&gt;&lt;td&gt;Record creation timestamp&lt;/td&gt;&lt;/tr&gt;&lt;tr style=&quot;background-color: #EAF2D3;&quot;&gt;&lt;td&gt;updated_at&lt;/td&gt;&lt;td&gt;DateTimeField&lt;/td&gt;&lt;td&gt;Last update timestamp&lt;/td&gt;&lt;/tr&gt;&lt;/table&gt;" style="text;html=1;strokeColor=#c0c0c0;fillColor=#ffffff;overflow=fill;rounded=0;" parent="1" vertex="1">
                    <mxGeometry x="40" y="299" width="700" height="261" as="geometry"/>
                </mxCell>
                <mxCell id="violation-title" value="&lt;h2&gt;Violation&lt;/h2&gt;" style="text;html=1;strokeColor=none;fillColor=none;align=left;verticalAlign=middle;whiteSpace=wrap;rounded=0;fontStyle=1" parent="1" vertex="1">
                    <mxGeometry x="40" y="560" width="200" height="30" as="geometry"/>
                </mxCell>
                <mxCell id="violation-table" value="&lt;table border=&quot;1&quot; width=&quot;100%&quot; cellpadding=&quot;4&quot; style=&quot;width: 100%; height: 100%; border-collapse: collapse;&quot;&gt;&lt;tr style=&quot;background-color: #A7C942; color: #ffffff; border: 1px solid #98bf21;&quot;&gt;&lt;th align=&quot;left&quot;&gt;Field&lt;/th&gt;&lt;th align=&quot;left&quot;&gt;Data Type&lt;/th&gt;&lt;th align=&quot;left&quot;&gt;Description&lt;/th&gt;&lt;/tr&gt;&lt;tr&gt;&lt;td&gt;id&lt;/td&gt;&lt;td&gt;AutoField&lt;/td&gt;&lt;td&gt;Primary key&lt;/td&gt;&lt;/tr&gt;&lt;tr style=&quot;background-color: #EAF2D3;&quot;&gt;&lt;td&gt;violator&lt;/td&gt;&lt;td&gt;ForeignKey&lt;/td&gt;&lt;td&gt;Reference to the Violator model&lt;/td&gt;&lt;/tr&gt;&lt;tr&gt;&lt;td&gt;user_account&lt;/td&gt;&lt;td&gt;ForeignKey&lt;/td&gt;&lt;td&gt;Link to user account if violator is registered (optional)&lt;/td&gt;&lt;/tr&gt;&lt;tr style=&quot;background-color: #EAF2D3;&quot;&gt;&lt;td&gt;enforcer&lt;/td&gt;&lt;td&gt;ForeignKey&lt;/td&gt;&lt;td&gt;Reference to the User who issued the violation&lt;/td&gt;&lt;/tr&gt;&lt;tr&gt;&lt;td&gt;violation_date&lt;/td&gt;&lt;td&gt;DateTimeField&lt;/td&gt;&lt;td&gt;Date and time when violation occurred&lt;/td&gt;&lt;/tr&gt;&lt;tr style=&quot;background-color: #EAF2D3;&quot;&gt;&lt;td&gt;location&lt;/td&gt;&lt;td&gt;CharField(200)&lt;/td&gt;&lt;td&gt;Location where violation occurred&lt;/td&gt;&lt;/tr&gt;&lt;tr&gt;&lt;td&gt;violation_type&lt;/td&gt;&lt;td&gt;TextField&lt;/td&gt;&lt;td&gt;Type of violation or comma-separated list&lt;/td&gt;&lt;/tr&gt;&lt;tr style=&quot;background-color: #EAF2D3;&quot;&gt;&lt;td&gt;violation_type_obj&lt;/td&gt;&lt;td&gt;ForeignKey&lt;/td&gt;&lt;td&gt;Reference to ViolationType model (optional)&lt;/td&gt;&lt;/tr&gt;&lt;tr&gt;&lt;td&gt;fine_amount&lt;/td&gt;&lt;td&gt;DecimalField&lt;/td&gt;&lt;td&gt;Fine amount for the violation&lt;/td&gt;&lt;/tr&gt;&lt;tr style=&quot;background-color: #EAF2D3;&quot;&gt;&lt;td&gt;status&lt;/td&gt;&lt;td&gt;CharField(20)&lt;/td&gt;&lt;td&gt;Current status of violation (Pending, Approved, etc.)&lt;/td&gt;&lt;/tr&gt;&lt;tr&gt;&lt;td&gt;plate_number&lt;/td&gt;&lt;td&gt;CharField(20)&lt;/td&gt;&lt;td&gt;Vehicle plate number (optional)&lt;/td&gt;&lt;/tr&gt;&lt;tr style=&quot;background-color: #EAF2D3;&quot;&gt;&lt;td&gt;qr_hash&lt;/td&gt;&lt;td&gt;ForeignKey&lt;/td&gt;&lt;td&gt;Reference to ViolatorQRHash model (optional)&lt;/td&gt;&lt;/tr&gt;&lt;/table&gt;" style="text;html=1;strokeColor=#c0c0c0;fillColor=#ffffff;overflow=fill;rounded=0;" parent="1" vertex="1">
                    <mxGeometry x="40" y="590" width="700" height="300" as="geometry"/>
                </mxCell>
                <mxCell id="payment-title" value="&lt;h2&gt;Payment&lt;/h2&gt;" style="text;html=1;strokeColor=none;fillColor=none;align=left;verticalAlign=middle;whiteSpace=wrap;rounded=0;fontStyle=1" parent="1" vertex="1">
                    <mxGeometry x="40" y="900" width="200" height="30" as="geometry"/>
                </mxCell>
                <mxCell id="payment-table" value="&lt;table border=&quot;1&quot; width=&quot;100%&quot; cellpadding=&quot;4&quot; style=&quot;width: 100%; height: 100%; border-collapse: collapse;&quot;&gt;&lt;tr style=&quot;background-color: #A7C942; color: #ffffff; border: 1px solid #98bf21;&quot;&gt;&lt;th align=&quot;left&quot;&gt;Field&lt;/th&gt;&lt;th align=&quot;left&quot;&gt;Data Type&lt;/th&gt;&lt;th align=&quot;left&quot;&gt;Description&lt;/th&gt;&lt;/tr&gt;&lt;tr&gt;&lt;td&gt;id&lt;/td&gt;&lt;td&gt;AutoField&lt;/td&gt;&lt;td&gt;Primary key&lt;/td&gt;&lt;/tr&gt;&lt;tr style=&quot;background-color: #EAF2D3;&quot;&gt;&lt;td&gt;violation&lt;/td&gt;&lt;td&gt;OneToOneField&lt;/td&gt;&lt;td&gt;Reference to the Violation being paid for&lt;/td&gt;&lt;/tr&gt;&lt;tr&gt;&lt;td&gt;amount_paid&lt;/td&gt;&lt;td&gt;DecimalField&lt;/td&gt;&lt;td&gt;Amount paid for the violation&lt;/td&gt;&lt;/tr&gt;&lt;tr style=&quot;background-color: #EAF2D3;&quot;&gt;&lt;td&gt;payment_date&lt;/td&gt;&lt;td&gt;DateTimeField&lt;/td&gt;&lt;td&gt;Date and time of payment&lt;/td&gt;&lt;/tr&gt;&lt;tr&gt;&lt;td&gt;payment_method&lt;/td&gt;&lt;td&gt;CharField(50)&lt;/td&gt;&lt;td&gt;Method of payment (Cash, Card, etc.)&lt;/td&gt;&lt;/tr&gt;&lt;tr style=&quot;background-color: #EAF2D3;&quot;&gt;&lt;td&gt;transaction_id&lt;/td&gt;&lt;td&gt;CharField(100)&lt;/td&gt;&lt;td&gt;Unique transaction identifier&lt;/td&gt;&lt;/tr&gt;&lt;/table&gt;" style="text;html=1;strokeColor=#c0c0c0;fillColor=#ffffff;overflow=fill;rounded=0;" parent="1" vertex="1">
                    <mxGeometry x="40" y="930" width="700" height="180" as="geometry"/>
                </mxCell>
                <mxCell id="userprofile-title" value="&lt;h2&gt;UserProfile&lt;/h2&gt;" style="text;html=1;strokeColor=none;fillColor=none;align=left;verticalAlign=middle;whiteSpace=wrap;rounded=0;fontStyle=1" parent="1" vertex="1">
                    <mxGeometry x="35" y="1120" width="200" height="30" as="geometry"/>
                </mxCell>
                <mxCell id="userprofile-table" value="&lt;table border=&quot;1&quot; width=&quot;100%&quot; cellpadding=&quot;4&quot; style=&quot;width: 100%; height: 100%; border-collapse: collapse;&quot;&gt;&lt;tr style=&quot;background-color: #A7C942; color: #ffffff; border: 1px solid #98bf21;&quot;&gt;&lt;th align=&quot;left&quot;&gt;Field&lt;/th&gt;&lt;th align=&quot;left&quot;&gt;Data Type&lt;/th&gt;&lt;th align=&quot;left&quot;&gt;Description&lt;/th&gt;&lt;/tr&gt;&lt;tr&gt;&lt;td&gt;id&lt;/td&gt;&lt;td&gt;AutoField&lt;/td&gt;&lt;td&gt;Primary key&lt;/td&gt;&lt;/tr&gt;&lt;tr style=&quot;background-color: #EAF2D3;&quot;&gt;&lt;td&gt;user&lt;/td&gt;&lt;td&gt;OneToOneField&lt;/td&gt;&lt;td&gt;Reference to the User model&lt;/td&gt;&lt;/tr&gt;&lt;tr&gt;&lt;td&gt;enforcer_id&lt;/td&gt;&lt;td&gt;CharField(10)&lt;/td&gt;&lt;td&gt;Unique identifier for enforcers (optional)&lt;/td&gt;&lt;/tr&gt;&lt;tr style=&quot;background-color: #EAF2D3;&quot;&gt;&lt;td&gt;avatar&lt;/td&gt;&lt;td&gt;ImageField&lt;/td&gt;&lt;td&gt;User&#39;s profile picture (optional)&lt;/td&gt;&lt;/tr&gt;&lt;tr&gt;&lt;td&gt;phone_number&lt;/td&gt;&lt;td&gt;CharField(15)&lt;/td&gt;&lt;td&gt;Contact phone number&lt;/td&gt;&lt;/tr&gt;&lt;tr style=&quot;background-color: #EAF2D3;&quot;&gt;&lt;td&gt;address&lt;/td&gt;&lt;td&gt;TextField&lt;/td&gt;&lt;td&gt;User&#39;s residential address&lt;/td&gt;&lt;/tr&gt;&lt;tr&gt;&lt;td&gt;qr_code&lt;/td&gt;&lt;td&gt;ImageField&lt;/td&gt;&lt;td&gt;QR code generated for user&lt;/td&gt;&lt;/tr&gt;&lt;tr style=&quot;background-color: #EAF2D3;&quot;&gt;&lt;td&gt;role&lt;/td&gt;&lt;td&gt;CharField(20)&lt;/td&gt;&lt;td&gt;User role (Admin, Enforcer, etc.)&lt;/td&gt;&lt;/tr&gt;&lt;tr&gt;&lt;td&gt;latitude&lt;/td&gt;&lt;td&gt;DecimalField&lt;/td&gt;&lt;td&gt;Last known latitude (optional)&lt;/td&gt;&lt;/tr&gt;&lt;tr style=&quot;background-color: #EAF2D3;&quot;&gt;&lt;td&gt;longitude&lt;/td&gt;&lt;td&gt;DecimalField&lt;/td&gt;&lt;td&gt;Last known longitude (optional)&lt;/td&gt;&lt;/tr&gt;&lt;tr&gt;&lt;td&gt;is_active_duty&lt;/td&gt;&lt;td&gt;BooleanField&lt;/td&gt;&lt;td&gt;Whether user is currently on duty&lt;/td&gt;&lt;/tr&gt;&lt;tr style=&quot;background-color: #EAF2D3;&quot;&gt;&lt;td&gt;license_number&lt;/td&gt;&lt;td&gt;CharField(20)&lt;/td&gt;&lt;td&gt;Driver&#39;s license number (optional)&lt;/td&gt;&lt;/tr&gt;&lt;tr&gt;&lt;td&gt;is_operator&lt;/td&gt;&lt;td&gt;BooleanField&lt;/td&gt;&lt;td&gt;Whether user is a vehicle operator&lt;/td&gt;&lt;/tr&gt;&lt;tr style=&quot;background-color: #EAF2D3;&quot;&gt;&lt;td&gt;is_driver&lt;/td&gt;&lt;td&gt;BooleanField&lt;/td&gt;&lt;td&gt;Whether user is a registered driver&lt;/td&gt;&lt;/tr&gt;&lt;/table&gt;" style="text;html=1;strokeColor=#c0c0c0;fillColor=#ffffff;overflow=fill;rounded=0;" parent="1" vertex="1">
                    <mxGeometry x="40" y="1150" width="700" height="400" as="geometry"/>
                </mxCell>
            </root>
        </mxGraphModel>
    </diagram>
</mxfile>